<?xml version="1.0" encoding="UTF-8" standalone="no"?><!DOCTYPE svg PUBLIC "-//W3C//DTD SVG 1.1//EN" "http://www.w3.org/Graphics/SVG/1.1/DTD/svg11.dtd"><svg width="100%" height="100%" viewBox="0 0 3375 313" version="1.1" xmlns="http://www.w3.org/2000/svg" xmlns:xlink="http://www.w3.org/1999/xlink" xml:space="preserve" xmlns:serif="http://www.serif.com/" style="fill-rule:evenodd;clip-rule:evenodd;stroke-linejoin:round;stroke-miterlimit:2;"><rect id="Prancheta1" x="0" y="0" width="3375" height="313" style="fill:none;"/><clipPath id="_clip1"><rect id="Prancheta11" serif:id="Prancheta1" x="0" y="0" width="3375" height="313"/></clipPath><g clip-path="url(#_clip1)"><g><path d="M-0,31.845l39.862,0l73.524,107.185l73.228,-107.185l39.567,0l0,206.693l-46.654,0l0,-124.311l-50.197,73.228l-32.48,0l-50.197,-73.524l0,124.606l-46.654,0l0,-206.693Z" style="fill:#fff;fill-rule:nonzero;"/><path d="M306.201,105.369l-46.654,0l0,-41.043l20.965,0c9.843,0 17.224,-1.575 22.146,-4.724c4.921,-3.15 8.563,-8.563 10.925,-16.24l3.543,-11.516l35.138,0l0,206.693l-46.063,0l0,-133.169Z" style="fill:none;fill-rule:nonzero;"/><path d="M496.654,242.672c-15.748,0 -30.167,-2.657 -43.258,-7.972c-13.091,-5.315 -24.36,-12.697 -33.809,-22.146c-9.449,-9.449 -16.781,-20.768 -21.998,-33.957c-5.217,-13.189 -7.825,-27.657 -7.825,-43.406c0,-15.748 2.608,-30.217 7.825,-43.406c5.217,-13.189 12.549,-24.508 21.998,-33.957c9.449,-9.449 20.719,-16.831 33.809,-22.146c13.091,-5.315 27.411,-7.972 42.963,-7.972c13.189,0 25.541,1.919 37.057,5.758c11.516,3.839 21.85,9.301 31.004,16.388c9.154,7.087 16.978,15.65 23.474,25.689c6.496,10.039 11.22,21.26 14.173,33.661l-48.425,0c-3.937,-11.417 -10.925,-20.423 -20.965,-27.018c-10.039,-6.594 -21.654,-9.892 -34.843,-9.892c-8.858,0 -16.978,1.526 -24.36,4.577c-7.382,3.051 -13.73,7.333 -19.045,12.844c-5.315,5.512 -9.449,12.156 -12.402,19.931c-2.953,7.776 -4.429,16.289 -4.429,25.541c0,9.252 1.476,17.766 4.429,25.541c2.953,7.776 7.087,14.419 12.402,19.931c5.315,5.512 11.614,9.793 18.898,12.844c7.283,3.051 15.354,4.577 24.213,4.577c13.583,0 25.492,-3.494 35.728,-10.482c10.236,-6.988 17.52,-16.388 21.85,-28.199l48.425,0c-2.559,12.598 -7.037,24.016 -13.435,34.252c-6.398,10.236 -14.222,18.996 -23.474,26.28c-9.252,7.283 -19.833,12.894 -31.742,16.831c-11.909,3.937 -24.656,5.906 -38.238,5.906Z" style="fill:#fff;fill-rule:nonzero;"/><path d="M768.012,155.271l-80.906,0l0,83.268l-46.949,0l0,-206.693l46.949,0l0,79.429l80.906,0l0,-79.429l46.949,0l0,206.693l-46.949,0l0,-83.268Z" style="fill:#fff;fill-rule:nonzero;"/><path d="M864.567,31.845l135.827,0l0,39.567l-89.173,0l0,42.815l81.201,0l0,39.272l-81.201,0l0,45.177l92.421,0l0,39.862l-139.075,0l0,-206.693Z" style="fill:#fff;fill-rule:nonzero;"/><path d="M1043.504,31.845l46.949,0l0,162.697l90.354,0l0,43.996l-137.303,0l0,-206.693Z" style="fill:#fff;fill-rule:nonzero;"/><path d="M1213.583,31.845l81.791,0c16.339,0 31.201,2.51 44.587,7.53c13.386,5.02 24.852,12.057 34.4,21.112c9.547,9.055 16.929,19.931 22.146,32.628c5.217,12.697 7.825,26.722 7.825,42.077c0,15.354 -2.608,29.38 -7.825,42.077c-5.217,12.697 -12.598,23.573 -22.146,32.628c-9.547,9.055 -21.014,16.093 -34.4,21.112c-13.386,5.02 -28.248,7.53 -44.587,7.53l-81.791,0l0,-206.693Zm80.906,163.583c9.252,0 17.618,-1.427 25.098,-4.281c7.48,-2.854 13.976,-6.939 19.488,-12.254c5.512,-5.315 9.744,-11.663 12.697,-19.045c2.953,-7.382 4.429,-15.6 4.429,-24.656c0,-9.055 -1.476,-17.274 -4.429,-24.656c-2.953,-7.382 -7.185,-13.73 -12.697,-19.045c-5.512,-5.315 -12.106,-9.4 -19.783,-12.254c-7.677,-2.854 -16.142,-4.281 -25.394,-4.281l-33.366,0l0,120.472l33.957,0Z" style="fill:#fff;fill-rule:nonzero;"/><path d="M1539.567,242.672c-16.142,0 -30.955,-2.657 -44.439,-7.972c-13.484,-5.315 -25.098,-12.697 -34.843,-22.146c-9.744,-9.449 -17.323,-20.768 -22.736,-33.957c-5.413,-13.189 -8.12,-27.657 -8.12,-43.406c0,-15.748 2.707,-30.217 8.12,-43.406c5.413,-13.189 12.992,-24.508 22.736,-33.957c9.744,-9.449 21.358,-16.831 34.843,-22.146c13.484,-5.315 28.297,-7.972 44.439,-7.972c16.142,0 31.004,2.657 44.587,7.972c13.583,5.315 25.246,12.697 34.99,22.146c9.744,9.449 17.323,20.768 22.736,33.957c5.413,13.189 8.12,27.657 8.12,43.406c0,15.748 -2.707,30.217 -8.12,43.406c-5.413,13.189 -12.992,24.508 -22.736,33.957c-9.744,9.449 -21.407,16.831 -34.99,22.146c-13.583,5.315 -28.445,7.972 -44.587,7.972Zm-62.303,-107.48c0,9.252 1.526,17.766 4.577,25.541c3.051,7.776 7.333,14.419 12.844,19.931c5.512,5.512 12.106,9.793 19.783,12.844c7.677,3.051 16.043,4.577 25.098,4.577c9.252,0 17.717,-1.526 25.394,-4.577c7.677,-3.051 14.222,-7.333 19.636,-12.844c5.413,-5.512 9.646,-12.156 12.697,-19.931c3.051,-7.776 4.577,-16.289 4.577,-25.541c0,-9.252 -1.526,-17.766 -4.577,-25.541c-3.051,-7.776 -7.283,-14.419 -12.697,-19.931c-5.413,-5.512 -11.959,-9.793 -19.636,-12.844c-7.677,-3.051 -16.142,-4.577 -25.394,-4.577c-9.055,0 -17.421,1.526 -25.098,4.577c-7.677,3.051 -14.272,7.333 -19.783,12.844c-5.512,5.512 -9.793,12.156 -12.844,19.931c-3.051,7.776 -4.577,16.289 -4.577,25.541Z" style="fill:#fff;fill-rule:nonzero;"/><path d="M1771.949,242.672c-13.386,0 -25.443,-2.067 -36.171,-6.201c-10.728,-4.134 -19.833,-10.039 -27.313,-17.717c-7.48,-7.677 -13.189,-17.028 -17.126,-28.051c-3.937,-11.024 -5.906,-23.425 -5.906,-37.205l0,-121.654l46.949,0l0,118.406c0,31.89 13.189,47.835 39.567,47.835c26.378,0 39.567,-15.945 39.567,-47.835l0,-118.406l46.949,0l0,121.654c0,13.78 -1.969,26.181 -5.906,37.205c-3.937,11.024 -9.646,20.374 -17.126,28.051c-7.48,7.677 -16.585,13.583 -27.313,17.717c-10.728,4.134 -22.785,6.201 -36.171,6.201Z" style="fill:#fff;fill-rule:nonzero;"/><path d="M2002.264,242.672c-15.945,0 -30.512,-2.657 -43.701,-7.972c-13.189,-5.315 -24.606,-12.697 -34.252,-22.146c-9.646,-9.449 -17.126,-20.768 -22.441,-33.957c-5.315,-13.189 -7.972,-27.657 -7.972,-43.406c0,-15.748 2.657,-30.217 7.972,-43.406c5.315,-13.189 12.697,-24.508 22.146,-33.957c9.449,-9.449 20.768,-16.831 33.957,-22.146c13.189,-5.315 27.657,-7.972 43.406,-7.972c12.598,0 24.508,1.722 35.728,5.167c11.22,3.445 21.309,8.268 30.266,14.469c8.957,6.201 16.683,13.73 23.179,22.589c6.496,8.858 11.319,18.701 14.469,29.528l-50.492,0c-5.118,-9.055 -12.205,-16.093 -21.26,-21.112c-9.055,-5.02 -19.39,-7.53 -31.004,-7.53c-9.055,0 -17.372,1.575 -24.951,4.724c-7.579,3.15 -14.075,7.579 -19.488,13.287c-5.413,5.709 -9.596,12.5 -12.549,20.374c-2.953,7.874 -4.429,16.535 -4.429,25.984c0,9.252 1.476,17.815 4.429,25.689c2.953,7.874 7.087,14.665 12.402,20.374c5.315,5.709 11.811,10.187 19.488,13.435c7.677,3.248 16.24,4.872 25.689,4.872c15.157,0 27.756,-3.839 37.795,-11.516c10.039,-7.677 16.535,-17.815 19.488,-30.413l-67.028,0l0,-36.319l116.634,0c1.181,17.717 -0.541,34.006 -5.167,48.868c-4.626,14.862 -11.663,27.657 -21.112,38.386c-9.449,10.728 -21.063,19.094 -34.843,25.098c-13.78,6.004 -29.232,9.006 -46.358,9.006Z" style="fill:#fff;fill-rule:nonzero;"/><path d="M2146.949,31.845l46.949,0l0,162.697l90.354,0l0,43.996l-137.303,0l0,-206.693Z" style="fill:#fff;fill-rule:nonzero;"/><path d="M2376.969,31.845l46.063,0l82.087,206.693l-50.197,0l-13.878,-35.728l-82.087,0l-13.878,35.728l-50.197,0l82.087,-206.693Zm52.264,134.055l-29.232,-75.591l-28.937,75.591l58.169,0Z" style="fill:#fff;fill-rule:nonzero;"/><path d="M2596.063,242.672c-12.992,0 -24.656,-1.624 -34.99,-4.872c-10.335,-3.248 -19.144,-7.923 -26.427,-14.026c-7.283,-6.102 -12.844,-13.484 -16.683,-22.146c-3.839,-8.661 -5.758,-18.307 -5.758,-28.937l46.063,0c0,10.039 3.396,17.766 10.187,23.179c6.791,5.413 15.896,8.12 27.313,8.12c9.843,0 17.618,-1.919 23.327,-5.758c5.709,-3.839 8.563,-9.203 8.563,-16.093c0,-7.283 -3.396,-13.189 -10.187,-17.717c-6.791,-4.528 -17.569,-8.366 -32.333,-11.516c-24.409,-5.118 -42.372,-12.844 -53.888,-23.179c-11.516,-10.335 -17.274,-23.967 -17.274,-40.896c0,-9.449 1.772,-17.963 5.315,-25.541c3.543,-7.579 8.661,-13.976 15.354,-19.193c6.693,-5.217 14.813,-9.252 24.36,-12.106c9.547,-2.854 20.226,-4.281 32.037,-4.281c12.205,0 23.278,1.624 33.219,4.872c9.941,3.248 18.406,7.825 25.394,13.73c6.988,5.906 12.352,13.041 16.093,21.407c3.74,8.366 5.61,17.766 5.61,28.199l-45.177,0c0,-9.449 -3.051,-16.781 -9.154,-21.998c-6.102,-5.217 -14.567,-7.825 -25.394,-7.825c-10.039,0 -17.864,1.919 -23.474,5.758c-5.61,3.839 -8.415,9.203 -8.415,16.093c0,6.299 3.15,11.614 9.449,15.945c6.299,4.331 17.323,8.366 33.071,12.106c25.787,6.102 44.39,14.222 55.807,24.36c11.417,10.138 17.126,23.474 17.126,40.01c0,19.685 -7.037,34.99 -21.112,45.915c-14.075,10.925 -33.415,16.388 -58.022,16.388Z" style="fill:#fff;fill-rule:nonzero;"/><path d="M2721.26,241.786c-8.268,0 -14.911,-2.51 -19.931,-7.53c-5.02,-5.02 -7.53,-11.368 -7.53,-19.045c0,-7.677 2.51,-14.075 7.53,-19.193c5.02,-5.118 11.663,-7.677 19.931,-7.677c8.071,0 14.665,2.559 19.783,7.677c5.118,5.118 7.677,11.516 7.677,19.193c0,7.677 -2.559,14.026 -7.677,19.045c-5.118,5.02 -11.713,7.53 -19.783,7.53Z" style="fill:none;fill-rule:nonzero;"/><path d="M2785.335,31.845l81.791,0c16.339,0 31.201,2.51 44.587,7.53c13.386,5.02 24.852,12.057 34.4,21.112c9.547,9.055 16.929,19.931 22.146,32.628c5.217,12.697 7.825,26.722 7.825,42.077c0,15.354 -2.608,29.38 -7.825,42.077c-5.217,12.697 -12.598,23.573 -22.146,32.628c-9.547,9.055 -21.014,16.093 -34.4,21.112c-13.386,5.02 -28.248,7.53 -44.587,7.53l-81.791,0l0,-206.693Zm80.906,163.583c9.252,0 17.618,-1.427 25.098,-4.281c7.48,-2.854 13.976,-6.939 19.488,-12.254c5.512,-5.315 9.744,-11.663 12.697,-19.045c2.953,-7.382 4.429,-15.6 4.429,-24.656c0,-9.055 -1.476,-17.274 -4.429,-24.656c-2.953,-7.382 -7.185,-13.73 -12.697,-19.045c-5.512,-5.315 -12.106,-9.4 -19.783,-12.254c-7.677,-2.854 -16.142,-4.281 -25.394,-4.281l-33.366,0l0,120.472l33.957,0Z" style="fill:#fff;fill-rule:nonzero;"/><path d="M3013.287,31.845l135.827,0l0,39.567l-89.173,0l0,42.815l81.201,0l0,39.272l-81.201,0l0,45.177l92.421,0l0,39.862l-139.075,0l0,-206.693Z" style="fill:#fff;fill-rule:nonzero;"/><path d="M3170.079,31.845l50.492,0l52.264,139.075l51.969,-139.075l50.197,0l-79.429,206.693l-46.063,0l-79.429,-206.693Z" style="fill:#fff;fill-rule:nonzero;"/></g><path d="M289.9,31.775l82.436,207.152l-50.703,0l-82.436,-207.152l50.703,0Z" style="fill:#f11348;"/><rect x="2697.776" y="192.427" width="46.505" height="46.5" style="fill:#f11348;"/></g></svg>