<?xml version="1.0" encoding="UTF-8" standalone="no"?><!DOCTYPE svg PUBLIC "-//W3C//DTD SVG 1.1//EN" "http://www.w3.org/Graphics/SVG/1.1/DTD/svg11.dtd"><svg width="100%" height="100%" viewBox="0 0 12892 2063" version="1.1" xmlns="http://www.w3.org/2000/svg" xmlns:xlink="http://www.w3.org/1999/xlink" xml:space="preserve" xmlns:serif="http://www.serif.com/" style="fill-rule:evenodd;clip-rule:evenodd;stroke-linejoin:round;stroke-miterlimit:2;"><g><path d="M12029.571,1498.483c-114.321,166.183 -305.825,275.171 -522.846,275.171c-207.292,0 -391.321,-99.304 -506.946,-253.125c-79.862,-106.075 -127.258,-238.021 -127.258,-381.075c0,-350.175 283.854,-634.2 634.2,-634.2c207.292,0 391.129,99.304 506.925,253.125c72.658,96.488 118.425,214.379 126.108,342.571l87.588,-0.062c55.883,-0.042 103.679,-40.175 113.383,-95.208l26.442,-149.958c7.167,-40.633 42.471,-70.258 83.729,-70.258l92.325,0c46.954,0 85.021,38.067 85.021,85.021l0,121.188l-0.175,0.175l175.808,0c22.254,0 43.6,8.842 59.337,24.579c15.738,15.737 24.579,37.079 24.579,59.338l0,213.292c0,55.546 -22.067,108.817 -61.342,148.092c-39.275,39.275 -92.546,61.342 -148.092,61.342l-648.783,0l-0.004,-0.004Zm-781.354,-164.933c61.804,82.117 156.075,129.167 258.508,129.167c86.283,0 167.533,-33.679 228.471,-94.617c61.112,-61.112 94.617,-142.188 94.617,-228.471c0,-70.658 -22.396,-137.846 -64.583,-194.096c-61.804,-82.117 -156.075,-129.167 -258.508,-129.167c-86.304,0 -167.533,33.679 -228.471,94.617c-61.112,61.113 -94.617,142.188 -94.617,228.471c0,70.658 22.396,137.846 64.758,194.096l-0.175,0Z" style="fill:#f11348;"/><path d="M891.596,1768.408c-2.65,0.025 -5.3,0.033 -7.954,0.033c-288.771,0 -545.179,-138.496 -706.413,-352.713c-111.258,-147.808 -177.225,-331.688 -177.225,-530.929c-0,-488.038 395.604,-883.642 883.642,-883.642c288.771,-0 545.129,138.471 706.388,352.688c111.279,147.808 177.25,331.713 177.25,530.954c0,337.854 -189.617,631.429 -468.237,780.104c64.425,50.513 145.608,80.625 233.829,80.625c122.842,0 232.05,-58.4 301.363,-148.954c24.5,50.721 55.708,96.467 93.621,137.254c33,35.433 69.904,65.404 110.717,89.921c-138,145.713 -333.304,236.604 -549.829,236.604c-242.775,0 -458.85,-114.242 -597.404,-291.917l0.3,0c-0.012,-0.013 -0.029,-0.025 -0.042,-0.033l-0.004,0.004Zm-464.421,-540.533c104.188,138.421 269.867,227.913 456.467,227.913c315.342,0 570.983,-255.642 570.983,-570.983c0,-128.746 -42.629,-247.579 -114.533,-343.088c-104.2,-138.421 -269.854,-227.896 -456.45,-227.896c-315.358,0 -570.983,255.629 -570.983,570.983c0,128.746 42.629,247.562 114.521,343.071l-0.004,0Zm3251.429,-702.288l0,1219.942l-328.646,-0l0,-1219.942c48.967,26.254 104.921,41.15 164.325,41.15c59.404,0 115.354,-14.896 164.325,-41.15l-0.004,-0Zm1495.833,0.146l0,1219.942l-328.646,0l0,-1219.942c48.967,26.254 104.921,41.15 164.325,41.15c59.404,0 115.354,-14.896 164.325,-41.15l-0.004,0Zm965.625,-22.913c153.471,0 273.612,46.7 360.242,140.279c86.633,93.575 130.033,219.271 130.033,377.429l0,725l-331.075,0l0,-656.25c0,-99.304 -22.396,-175 -67.012,-227.429c-44.617,-52.429 -107.467,-78.471 -188.367,-78.471c-86.283,0 -152.258,27.95 -198.092,83.679c-45.833,55.729 -68.75,133.679 -68.75,233.679l0,644.792l-328.646,0l0,-1219.792l328.646,0c-0.817,21.467 10.446,41.588 29.179,52.108c18.729,10.521 41.775,9.667 59.679,-2.204c14.654,-10.617 30.825,-19.767 48.125,-28.033c62.154,-29.863 137.675,-44.617 226.217,-44.617l-0.175,-0.175l-0.004,0.004Zm-3753.304,1265.621c-153.471,0 -273.613,-46.7 -360.242,-140.279c-86.633,-93.575 -130.033,-219.271 -130.033,-377.429l0,-725l331.075,0l0,656.25c0,99.304 22.396,175 67.012,227.429c44.617,52.429 107.467,78.471 188.367,78.471c86.283,0 152.258,-27.95 198.092,-83.679c45.833,-55.729 68.75,-133.679 68.75,-233.679l0,-644.792l328.646,0l0,1219.792l-328.646,0c0.817,-21.467 -10.446,-41.588 -29.179,-52.108c-18.729,-10.521 -41.775,-9.667 -59.679,2.204c-14.654,10.617 -30.825,19.767 -48.125,28.033c-62.154,29.862 -137.675,44.617 -226.217,44.617l0.175,0.175l0.004,-0.004Zm5678.633,-651.737l0,107.642l-881.925,0c2.238,87.846 30.537,156.771 84.704,206.771c54.183,50 122.242,75 203.837,75c61.113,0 113.888,-13.542 158.663,-40.625c44.637,-27.083 76.233,-66.667 94.462,-118.575l331.075,0c-26.737,127.604 -94.096,230.208 -202.1,308.158c-107.971,77.95 -238.35,116.842 -391.129,116.842c-183.333,0 -330.904,-58.158 -442.708,-174.654c-111.804,-116.492 -167.883,-270.138 -167.883,-460.938c0,-190.8 55.729,-343.229 167.188,-459.2c111.458,-116.146 258.158,-174.133 439.758,-174.133c181.596,0 329.167,55.729 439.742,167.188c110.783,111.458 166.162,260.417 166.162,446.7l0.154,-0.175Zm-605.883,-358.504c-74.15,0 -136.458,21.529 -187.325,64.758c-50.696,43.229 -79.513,105.208 -86.475,186.113l550.887,0c-6.946,-80.904 -35.938,-143.054 -86.979,-186.113c-51.217,-43.054 -114.583,-64.758 -190.104,-64.758l-0.004,0Zm-2828.996,987.329l-305.225,-1.004c-167.467,-0.55 -302.938,-136.467 -302.938,-303.938l0,-623.879l-187.846,0l0,-290.971l102.779,0c22.562,0 44.2,-8.963 60.154,-24.917c15.954,-15.954 24.917,-37.592 24.917,-60.154l0,-248.263l328.646,0l0,333.333l279.513,0l0,290.971l-279.513,0l0,555.113c0,46.967 38.062,85.046 85.025,85.071l194.487,0.096l0,288.542Zm4346.525,-0l-305.225,-1.004c-167.467,-0.55 -302.938,-136.467 -302.938,-303.938l0,-623.879l-187.846,0l0,-290.971l102.779,0c22.562,0 44.2,-8.963 60.154,-24.917c15.954,-15.954 24.917,-37.592 24.917,-60.154l0,-248.263l328.646,0l0,333.333l279.513,0l0,290.971l-279.513,0l0,555.113c0,46.967 38.063,85.046 85.025,85.071l194.488,0.096l0,288.542Zm1374.475,-628.825l0,107.642l-881.925,0c2.242,87.846 30.538,156.771 84.704,206.771c54.183,50 122.242,75 203.821,75c61.112,0 113.888,-13.542 158.679,-40.625c44.638,-27.083 76.217,-66.667 94.446,-118.575l331.075,0c-26.737,127.604 -94.096,230.208 -202.083,308.158c-107.987,77.95 -238.367,116.842 -391.146,116.842c-183.317,0 -330.887,-58.158 -442.708,-174.654c-111.804,-116.492 -167.883,-270.138 -167.883,-460.938c0,-190.8 55.729,-343.229 167.188,-459.2c111.458,-116.146 258.158,-174.133 439.758,-174.133c181.596,0 329.167,55.729 439.758,167.188c110.762,111.458 166.162,260.417 166.162,446.7l0.154,-0.175Zm-605.904,-358.504c-74.133,0 -136.442,21.529 -187.325,64.758c-50.867,43.229 -79.513,105.208 -86.458,186.112l550.867,0c-6.929,-80.904 -35.921,-143.054 -86.979,-186.112c-51.217,-43.054 -114.567,-64.758 -190.104,-64.758Zm779.858,-93.962l0.496,-138.504c87.125,-1.921 119.146,-37.462 131.742,-80.621c4.387,-14.738 1.558,-30.683 -7.633,-43.013c-9.192,-12.329 -23.667,-19.592 -39.046,-19.592c-16.696,-0.042 -35.346,-0.042 -53.2,-0.042c-42.608,0 -77.154,-34.554 -77.154,-77.162l0,-221.092c0,-46.508 37.7,-84.208 84.208,-84.208l223.246,-0c46.508,0 84.208,37.7 84.208,84.208l0,229.046c0,45.917 -7.883,91.487 -23.312,134.738l-1.471,4.121c-46.292,129.779 -170.408,215.4 -308.167,212.587l-13.925,-0.283l-0.004,-0.175l0.012,-0.008Zm-7011.188,-664.238c120.442,0 218.229,97.783 218.229,218.229c0,120.442 -97.783,218.229 -218.229,218.229c-120.442,0 -218.229,-97.783 -218.229,-218.229c0,-120.442 97.783,-218.229 218.229,-218.229Zm1493.492,0c120.442,0 218.229,97.783 218.229,218.229c0,120.442 -97.783,218.229 -218.229,218.229c-120.442,0 -218.229,-97.783 -218.229,-218.229c0,-120.442 97.783,-218.229 218.229,-218.229Z" style="fill:#fff;"/></g></svg>